<svg xmlns:xlink="http://www.w3.org/1999/xlink" xmlns="http://www.w3.org/2000/svg" viewBox="0 0 32 32" class="StyledSvg-sc-114c1w5-1 fdSsDM" width="32"  height="32" ><defs><symbol xmlns="http://www.w3.org/2000/svg" fill="none" viewBox="0 0 32 32" id="info2_uikit_icon"><path fill="#3D7FFC" d="M0 2.68C0 1.2 1.2 0 2.68 0h26.64C30.8 0 32 1.2 32 2.68v26.64C32 30.8 30.8 32 29.32 32H2.68A2.68 2.68 0 0 1 0 29.32z"></path><path fill="#FFFFFF" d="M13.773 7.242c.31.592.155 1.09-.063 1.618-.342.872-.249 1.712.374 2.428.622.746 1.493.84 2.396.653 1.244-.28 1.96-1.463 1.773-2.77-.093-.622-.466-1.244-.124-1.929-.311.156-.311.156-.684.778-.343-.404-.654-.84-1.027-1.276-.312-.342-.623-.653-.436-1.213a1.33 1.33 0 0 0-.685.747c-.093.31-.155.622-.217.933-.063.311-.218.591-.53.778-.186-.342-.373-.591-.777-.747m-.736 19.172v-1.522l1.649-.215v-8.702l-1.52-.493v-1.694l4.154-.557.878-.087v11.512l1.627.236v1.522z"></path></symbol></defs><use href="#info2_uikit_icon"></use></svg>