<svg id="Layer_1" data-name="Layer 1" xmlns="http://www.w3.org/2000/svg" viewBox="0 0 1585.83 379.15"><path d="M366.05,23.5c4,8.12,2,15-.8,22.22-4.41,12-3.21,23.5,4.81,33.33,8,10.25,19.23,11.54,30.85,9,16-3.84,25.23-20.08,22.83-38-1.2-8.54-6-17.09-1.6-26.49-4,2.14-4,2.14-8.82,10.68-4.4-5.55-8.41-11.53-13.22-17.52-4-4.7-8-9-5.61-16.66a17.83,17.83,0,0,0-8.81,10.25c-1.2,4.28-2,8.55-2.8,12.82a15.48,15.48,0,0,1-6.81,10.69C373.66,29.06,371.26,25.64,366.05,23.5Z" fill="#fff"/><path d="M25.05,272.5V75.42L3.26,71.6V53.35l56.8-7.66,9.65-1.46v74.92A42,42,0,0,1,78,112.08a60.84,60.84,0,0,1,10.2-6.18,74.91,74.91,0,0,1,12.13-4.41,54.29,54.29,0,0,1,14.07-1.77,63.36,63.36,0,0,1,24.81,4.71,54.36,54.36,0,0,1,20.4,15c5.79,7.07,10.48,15.9,14.06,27.08,3.31,11.19,5.24,24.43,5.24,40.62a124.92,124.92,0,0,1-5.79,38.56A89.29,89.29,0,0,1,156,256.61a79.72,79.72,0,0,1-27,20.6,84.1,84.1,0,0,1-36.12,7.65A234.81,234.81,0,0,1,67,283.39a156.43,156.43,0,0,1-20.4-3.53,113.9,113.9,0,0,1-14.06-4.12C28.91,274.27,26.15,273.38,25.05,272.5ZM95.9,128.27a33,33,0,0,0-15.71,3.53,35.56,35.56,0,0,0-10.48,7.95V256.31a12.85,12.85,0,0,0,7.72,5.59A38.43,38.43,0,0,0,90.94,264c6.62,0,12.41-1.77,17.09-5.6,5-3.82,8.83-8.83,12.14-15.3s5.51-14.13,7.16-22.67a146.4,146.4,0,0,0,2.49-27.67,168.31,168.31,0,0,0-1.93-27.37c-1.38-8-3.31-14.72-6.35-20.31a31.42,31.42,0,0,0-10.75-12.66A26.42,26.42,0,0,0,95.9,128.27Z" fill="#fff"/><path d="M203,279.62v-20.9l21-3V136.27l-19.85-6.48V106.25l49.62-7.66h.83l7.72,6.77v13L262,142.45h.56a68.65,68.65,0,0,1,6.34-12.36,90.48,90.48,0,0,1,11.3-14.72A64.13,64.13,0,0,1,295.6,103.3a38.51,38.51,0,0,1,19-5,44.79,44.79,0,0,1,6.9.29c1.65.3,3,.59,4.13.89v53.86q-1.65-1.32-8.27-2.65a83.33,83.33,0,0,0-16-1.47c-3.31,0-6.89.3-10.2.59a50.19,50.19,0,0,0-9.65,1.77,52.67,52.67,0,0,0-8,2.35,25.84,25.84,0,0,0-5.51,2.65v98.9l36.12,3.83v20.31Z" fill="#fff"/><path d="M356.57,281.33v-20.9l21.23-2.94V138l-19.57-6.77V108l53.49-7.65L423,99.12V257.2l21,3.23v20.9Z" fill="#fff"/><path d="M541.18,223.92a130.53,130.53,0,0,1-22.84-1.84,24.68,24.68,0,0,0-4.28,6.44,19.84,19.84,0,0,0-1.71,8.58c0,3.67.57,6.74,2,9.19a13.91,13.91,0,0,0,6.28,5.21A32.48,32.48,0,0,0,531.47,254c4.57.31,9.71.61,15.7.61h30c21.69,0,37.68,4,48.52,11.65,10.56,8,16,20.83,16,38.6a56.31,56.31,0,0,1-8,29.72c-5.14,8.89-12.28,16.24-21.41,22.68a106.73,106.73,0,0,1-31.12,14.4,132.47,132.47,0,0,1-36.82,5.21H544c-14.27,0-26.26-1.23-36.25-4s-18.27-6.43-24.83-11A43.4,43.4,0,0,1,468.67,345a48.79,48.79,0,0,1-4.56-21.45,39.66,39.66,0,0,1,2.56-14.09,49.21,49.21,0,0,1,6.86-12,43.68,43.68,0,0,1,10-9.5,49,49,0,0,1,11.7-6.43c-5.71-3.37-10.28-7.36-13.42-12.26s-4.56-10.72-4.56-17.46c0-8.28,2-15,6-20.84a63,63,0,0,1,15.42-15c-10.28-4.91-17.7-12-22.56-21.14s-7.42-19.92-7.42-32.18a57.3,57.3,0,0,1,6-26.35,61.25,61.25,0,0,1,16.55-20.22,80.11,80.11,0,0,1,24.55-12.87,96.43,96.43,0,0,1,30-4.59H546c25.12,0,43.68,5.21,56,15.62a34.73,34.73,0,0,1,5.71-5.51,44.34,44.34,0,0,1,8.28-5.21,52,52,0,0,1,10.28-3.68,49.52,49.52,0,0,1,12-1.53h7.14v36.15H615.68a64.12,64.12,0,0,1,2.57,10.73,82.34,82.34,0,0,1,.86,12.25,62.45,62.45,0,0,1-5.71,26.66,65.46,65.46,0,0,1-16,21.14A78.43,78.43,0,0,1,572.86,219C563.16,222.39,552.88,223.92,541.18,223.92Zm-7.71,65.27a107,107,0,0,1-18-1.54,43.93,43.93,0,0,0-5.71,9.2c-1.71,3.67-2.57,9.19-2.57,15.62q0,11,2.57,18.39a29.68,29.68,0,0,0,8,12.25,30.34,30.34,0,0,0,13.13,6.74,63.57,63.57,0,0,0,18,2.15h.28a72.17,72.17,0,0,0,18-2.15,52.4,52.4,0,0,0,15.7-6.74,34.05,34.05,0,0,0,10.85-11.64A30.35,30.35,0,0,0,598,315.23,51.45,51.45,0,0,0,596.56,303a15.47,15.47,0,0,0-5.14-8.27,22.23,22.23,0,0,0-10-4.59,78.16,78.16,0,0,0-16.27-1.54H533.47Zm11.42-86.71a23.73,23.73,0,0,0,12.84-3.38,23.14,23.14,0,0,0,8-8.88c2-3.68,3.14-8.27,4-13.48a100.66,100.66,0,0,0,1.15-16.24c0-14.1-2-24.51-6.28-30.95s-11.14-9.5-21.13-9.5h-.28c-9.42,0-16.27,3.37-20.56,9.81s-6.56,15.93-6.56,29.11a106.85,106.85,0,0,0,1.43,17.46,47.77,47.77,0,0,0,4.56,13.79,25.43,25.43,0,0,0,8.85,8.88A27.31,27.31,0,0,0,544.89,202.48Z" fill="#fff"/><path d="M661.52,281.33v-20.9l17.92-3.23V73.73L657.66,69.9V51.65L714.18,44l3.28-.59h6.15l.49,57.2-.49,22.27c2.48-2.65,4.08-2.85,8.21-5.79a86.61,86.61,0,0,1,13.24-8A120.22,120.22,0,0,1,761.33,103a75.85,75.85,0,0,1,18.47-2.35c9.37,0,17.37,1.47,23.43,4.12a34,34,0,0,1,14.89,13c3.86,5.88,6.06,13.24,7.72,22.07a206.57,206.57,0,0,1,2.2,31.5V257.2l20.41,3.23v20.9H767.12V261l16.26-3.53V171a122.86,122.86,0,0,0-1.1-18.54,33.47,33.47,0,0,0-3.86-12.95,16,16,0,0,0-7.72-7.36,32.35,32.35,0,0,0-13-2.35,35.47,35.47,0,0,0-9.37,1.17q-5,1.34-9.1,2.65A56.67,56.67,0,0,0,731,137.4a68.88,68.88,0,0,0-6.61,4.41V257.49l19.85,3.24v20.9H661.52Z" fill="#fff"/><path d="M880.83,245.3V131.09h-20.4V113.43c.83-.29,1.93-.59,3.58-1.17s3.31-1.48,5.24-2.06c1.65-.59,3.31-1.48,5-2.07a7.36,7.36,0,0,0,2.76-1.47c3.31-2.65,6.62-7.65,10.2-15,1.1-2.06,1.93-4.41,3.31-7.36s2.2-5.59,3.31-8.53,2.2-5.89,3-8.83c1.1-3,1.65-5.6,2.48-8h25.92l.55,45.92H968.5v26.49H925.77v86c0,8.24,0,14.71.28,19.72A41.53,41.53,0,0,0,927.7,248a7.27,7.27,0,0,0,4.41,4.71,27.53,27.53,0,0,0,8,1.18h.27c2.21,0,4.69-.3,7.45-.59a67.49,67.49,0,0,0,7.44-1.48c2.48-.58,4.69-1.17,6.89-1.76a38,38,0,0,0,5.24-1.77h.28l6.89,18.25a72.59,72.59,0,0,1-10.75,7.07A130.8,130.8,0,0,1,949.76,280a96,96,0,0,1-16.27,4.71,84.15,84.15,0,0,1-17.1,1.77h-.27a44.43,44.43,0,0,1-16.27-2.65,26.2,26.2,0,0,1-11-7.95,34.5,34.5,0,0,1-6.06-13A68.77,68.77,0,0,1,880.83,245.3Z" fill="#fff"/><path d="M1100.62,285.79a60.86,60.86,0,0,1-24.82-5.3,56.28,56.28,0,0,1-20.68-16.19c-6.06-7.36-10.75-16.48-14.34-27.38s-5.23-23.84-5.23-38.85a122,122,0,0,1,5.78-38.26,96.59,96.59,0,0,1,16.83-30.91,78.6,78.6,0,0,1,26.74-20.6c10.48-5,22.33-7.36,35.57-7.36a108.17,108.17,0,0,1,13.78.88c4.41.59,8.82,1.18,13,2.06V71.23l-28.68-3V53.56L1172,46.8h.83l7.17-.93V263.71h17.37v16.48c-4.14,1.18-8.83,2.36-14.34,3.83a67.11,67.11,0,0,1-17.37,2.06,46,46,0,0,1-6.89-.59,9.89,9.89,0,0,1-5-2.35,10.09,10.09,0,0,1-3-5,33.27,33.27,0,0,1-1.1-8.53v-6.77a87,87,0,0,1-8.82,8.53,49.25,49.25,0,0,1-11,7.36,82.45,82.45,0,0,1-13.51,5.3A83.61,83.61,0,0,1,1100.62,285.79Zm13.5-23.85a45.07,45.07,0,0,0,11-1.47,71.14,71.14,0,0,0,9.37-3.82,49.14,49.14,0,0,0,7.45-5,33.53,33.53,0,0,0,5.52-5.3V128a10.76,10.76,0,0,0-3.59-3.53,28.55,28.55,0,0,0-6.62-3.24,36.21,36.21,0,0,0-8.54-2.06,52,52,0,0,0-9.93-.89,41.33,41.33,0,0,0-18.19,3.83,39.1,39.1,0,0,0-15.17,12.66c-4.41,5.88-7.72,13.54-10.2,23s-3.86,20.89-4.14,34.43a120,120,0,0,0,3,31.5,70.13,70.13,0,0,0,9.09,21.78A38.22,38.22,0,0,0,1097,258.12,41.8,41.8,0,0,0,1114.12,261.94Z" fill="#c6dbff"/><path d="M1201.45,236.39a51.51,51.51,0,0,1,3.86-20,48.79,48.79,0,0,1,10.75-15.6,74,74,0,0,1,16-11.48,100.69,100.69,0,0,1,19.84-7.65,138,138,0,0,1,22.34-4.42c7.72-.88,15.44-1.47,22.88-1.76v-8.24a114.32,114.32,0,0,0-1.38-18.55,35.42,35.42,0,0,0-5-12.36,18,18,0,0,0-9.65-6.77c-3.86-1.47-9.1-2.06-15.17-2.06a95,95,0,0,0-15.71,1.47c-5.24,1.18-10.2,2.36-15.16,3.83-4.69,1.47-9.1,3.24-13.24,4.71-4.13,1.76-7.44,3.24-10.2,4.71h-.27l-6.62-15a68,68,0,0,1,9.65-7.07,151.33,151.33,0,0,1,16.54-8.53,187.45,187.45,0,0,1,20.4-7.07,80.69,80.69,0,0,1,21.78-2.94,93.81,93.81,0,0,1,25.92,3.24,41.19,41.19,0,0,1,17.09,10.59c4.41,5,7.45,11.19,9.38,19.13s2.76,17.37,2.76,28.85V265.82h17.92v15c-1.94.59-4.14,1.18-6.62,1.77s-5.24,1.18-8,1.77-5.79,1.17-8.55,1.47-5.8.59-8.28.59a52.93,52.93,0,0,1-7.16-.3,9.5,9.5,0,0,1-5-2.06,8.6,8.6,0,0,1-2.76-5,36.19,36.19,0,0,1-.83-8.83v-5.89c-1.38,1.18-3.31,2.94-6.07,5.59a68,68,0,0,1-10.47,7.36,75,75,0,0,1-14.34,6.48,53.74,53.74,0,0,1-17.09,2.65,58.6,58.6,0,0,1-19-2.95,50.63,50.63,0,0,1-16-8.83,42,42,0,0,1-11-15.6C1202.27,252.58,1201.45,245.22,1201.45,236.39ZM1264,262.88a36.42,36.42,0,0,0,7.16-.88c2.76-.59,5.79-1.48,8.83-2.36a80.59,80.59,0,0,0,8.82-3.83,54.3,54.3,0,0,0,8-5V193.12a117.59,117.59,0,0,0-29.22,3.24c-7.72,2.06-14.06,5-18.75,8.53a29.49,29.49,0,0,0-9.92,12.37,37.44,37.44,0,0,0-3,14.42,43.54,43.54,0,0,0,2.21,14.42,27.68,27.68,0,0,0,5.79,9.71,21.13,21.13,0,0,0,8.82,5.3A37.68,37.68,0,0,0,1264,262.88Z" fill="#c6dbff"/><path d="M1354.51,246.18V124.62h-21V109.9c3-1.18,6.06-2.06,8.82-3.24,3-1.17,5.24-2.06,6.34-3.23,3.31-2.36,5.79-6.19,8.27-11.78.83-1.76,1.66-4.41,3-7.36,1.11-2.94,2.21-6.18,3.31-9.42s2.21-6.18,3-9.12,1.66-5.3,1.93-6.77H1387v43h48.8v22.67H1387v93.31c0,9.12,0,16.48.28,21.78s.82,9.12,1.93,11.48a8,8,0,0,0,5,4.71,37.35,37.35,0,0,0,9.1.88h.28c2.75,0,5.78-.3,8.82-.59a78.35,78.35,0,0,0,8.82-1.47c3-.59,5.52-1.18,8-1.77a19.3,19.3,0,0,0,5.78-2.06h.28l5,15.31a56.08,56.08,0,0,1-9.64,5.88,140.46,140.46,0,0,1-13.24,5.6,112.84,112.84,0,0,1-14.89,4.12,65.34,65.34,0,0,1-14.61,1.76h-.28a49.28,49.28,0,0,1-13.78-1.76,24.11,24.11,0,0,1-10.48-6.18,32,32,0,0,1-6.61-11.48A70.55,70.55,0,0,1,1354.51,246.18Z" fill="#c6dbff"/><path d="M1441.08,233.11a51.51,51.51,0,0,1,3.86-20,48.82,48.82,0,0,1,10.76-15.6,73.65,73.65,0,0,1,16-11.48,101.66,101.66,0,0,1,19.85-7.65,136.82,136.82,0,0,1,22.33-4.41c7.72-.89,15.44-1.48,22.88-1.77v-8.24a114.32,114.32,0,0,0-1.38-18.55,35.23,35.23,0,0,0-5-12.36,18.05,18.05,0,0,0-9.64-6.77c-3.87-1.47-9.11-2.06-15.17-2.06a95,95,0,0,0-15.72,1.47c-5.23,1.18-10.19,2.36-15.16,3.83-4.69,1.47-9.1,3.24-13.23,4.71-4.14,1.77-7.44,3.24-10.2,4.71H1451l-6.62-15a68.24,68.24,0,0,1,9.66-7.07,150.42,150.42,0,0,1,16.54-8.53,187.45,187.45,0,0,1,20.4-7.07,80.64,80.64,0,0,1,21.78-2.94,93.73,93.73,0,0,1,25.91,3.24,41.23,41.23,0,0,1,17.1,10.59c4.41,5,7.44,11.19,9.37,19.14s2.76,17.36,2.76,28.84V262.54h17.92v15q-2.89.87-6.62,1.76c-2.48.59-5.23,1.18-8,1.77s-5.79,1.17-8.55,1.47-5.79.59-8.27.59a52.86,52.86,0,0,1-7.16-.3,9.5,9.5,0,0,1-5-2.06,8.57,8.57,0,0,1-2.76-5,36.13,36.13,0,0,1-.83-8.83v-5.89c-1.38,1.18-3.31,2.95-6.06,5.59a68.44,68.44,0,0,1-10.47,7.36,75,75,0,0,1-14.34,6.48,53.8,53.8,0,0,1-17.1,2.65,58.64,58.64,0,0,1-19-2.95,50.47,50.47,0,0,1-16-8.83,41.92,41.92,0,0,1-11-15.6C1441.91,249.3,1441.08,241.94,1441.08,233.11ZM1504,259.6a35.51,35.51,0,0,0,7.16-.88c2.76-.59,5.79-1.47,8.83-2.36a80.55,80.55,0,0,0,8.82-3.82,55.19,55.19,0,0,0,8-5V189.84a117.59,117.59,0,0,0-29.22,3.24c-7.72,2.06-14.06,5-18.75,8.53a29.55,29.55,0,0,0-9.92,12.37,37.51,37.51,0,0,0-3,14.42,43.52,43.52,0,0,0,2.2,14.42,27.81,27.81,0,0,0,5.79,9.72,21.21,21.21,0,0,0,8.82,5.29A37.68,37.68,0,0,0,1504,259.6Z" fill="#c6dbff"/></svg>